<?xml version="1.0" standalone="no"?>
<!DOCTYPE svg PUBLIC "-//W3C//DTD SVG 20010904//EN" "http://www.w3.org/TR/2001/REC-SVG-20010904/DTD/svg10.dtd">
<svg version="1.0" xmlns="http://www.w3.org/2000/svg"
 width="500.000000pt" height="500.000000pt" viewBox="0 0 500.000000 500.000000"
 preserveAspectRatio="xMidYMid meet">
<metadata>
Created by potrace 1.14, written by Peter Selinger 2001-2017
</metadata>
<g transform="translate(0.000000,500.000000) scale(0.100000,-0.100000)"
fill="#000000" stroke="none">
<path d="M2550 4358 l0 -45 75 -7 c214 -19 451 -133 615 -295 163 -161 281
-396 305 -606 11 -95 11 -95 60 -95 43 0 44 1 40 28 -2 15 -9 59 -15 97 -61
396 -326 731 -700 885 -97 40 -211 69 -305 77 l-75 6 0 -45z"/>
<path d="M1356 3153 c39 -390 266 -731 606 -912 128 -68 348 -131 461 -131 27
0 28 1 25 48 l-3 47 -70 8 c-244 26 -505 162 -662 344 -146 168 -238 377 -259
582 l-7 71 -48 0 -49 0 6 -57z"/>
<path d="M3556 3198 c-3 -7 -7 -40 -10 -73 -20 -217 -157 -484 -329 -641 -158
-143 -347 -234 -558 -269 -52 -8 -97 -15 -101 -15 -5 0 -8 -20 -8 -45 0 -42 2
-45 28 -45 51 0 201 30 279 56 43 15 121 48 173 75 327 168 550 481 606 849
19 128 21 120 -31 120 -28 0 -47 -5 -49 -12z"/>
<path d="M977 1660 c-85 -22 -146 -74 -185 -158 -20 -45 -23 -65 -20 -125 9
-162 114 -262 278 -262 159 0 267 99 277 255 7 92 -22 164 -88 224 -69 62
-172 88 -262 66z m196 -96 c117 -83 117 -265 -1 -348 -74 -53 -194 -47 -264
12 -93 79 -89 254 7 328 47 35 80 44 154 40 50 -3 72 -10 104 -32z"/>
<path d="M1543 1660 c-97 -20 -147 -92 -123 -180 14 -53 57 -83 153 -109 102
-28 135 -46 143 -76 17 -70 -37 -119 -124 -112 -63 4 -103 31 -116 76 -8 28
-13 32 -40 29 -28 -3 -31 -6 -28 -33 9 -83 84 -138 191 -138 115 -1 180 48
189 142 8 91 -30 128 -178 170 -123 34 -157 78 -107 136 49 58 186 38 203 -30
5 -21 12 -25 40 -25 32 0 34 2 28 28 -22 94 -117 144 -231 122z"/>
<path d="M2220 1659 c-86 -17 -135 -78 -127 -159 7 -65 50 -100 158 -129 107
-29 137 -45 145 -76 31 -125 -204 -161 -241 -37 -8 28 -13 32 -43 32 -34 0
-35 -1 -29 -35 14 -85 90 -138 197 -139 110 0 190 65 190 155 0 80 -48 121
-185 159 -89 24 -125 50 -125 91 0 93 183 109 220 19 10 -24 18 -30 43 -30 29
0 29 1 24 36 -14 86 -113 135 -227 113z"/>
<path d="M2945 1657 c-94 -31 -140 -71 -176 -152 -45 -101 -21 -241 54 -313
58 -55 113 -77 197 -76 120 0 201 53 245 157 l15 37 -35 0 c-28 0 -37 -5 -49
-29 -22 -42 -81 -89 -122 -97 -163 -30 -287 96 -253 256 26 121 167 194 282
146 32 -13 97 -78 97 -96 0 -6 16 -10 35 -10 44 0 45 13 3 76 -60 87 -193 133
-293 101z"/>
<path d="M4475 1657 c-94 -31 -140 -71 -176 -152 -45 -101 -21 -241 54 -313
58 -55 113 -77 197 -76 120 0 201 53 245 157 l15 37 -35 0 c-28 0 -37 -5 -49
-29 -22 -42 -81 -89 -122 -97 -163 -30 -287 96 -253 256 26 121 167 194 282
146 32 -13 97 -78 97 -96 0 -6 16 -10 35 -10 44 0 45 13 3 76 -60 87 -193 133
-293 101z"/>
<path d="M240 1389 l0 -271 128 4 c113 3 132 6 177 30 97 50 140 124 140 238
0 65 -4 83 -30 129 -57 102 -142 141 -312 141 l-103 0 0 -271z m256 191 c69
-26 123 -110 124 -191 0 -58 -39 -137 -82 -166 -41 -27 -120 -45 -184 -41
l-49 3 -3 195 c-1 107 0 201 3 209 4 11 21 13 83 8 43 -3 92 -11 108 -17z"/>
<path d="M1900 1390 l0 -270 35 0 35 0 0 270 0 270 -35 0 -35 0 0 -270z"/>
<path d="M3526 1628 c-19 -45 -197 -480 -203 -496 -4 -10 4 -13 32 -10 36 3
38 6 62 66 l25 63 131 -3 131 -3 25 -62 c25 -61 27 -63 63 -63 l37 0 -39 93
c-193 461 -184 442 -218 445 -29 3 -34 -1 -46 -30z m144 -309 c0 -5 -45 -9
-101 -9 -77 0 -100 3 -96 13 57 143 90 223 94 231 5 8 103 -216 103 -235z"/>
<path d="M3920 1390 l0 -270 150 0 150 0 0 30 0 29 -117 3 -118 3 -3 238 -2
237 -30 0 -30 0 0 -270z"/>
<path d="M516 844 c-5 -14 -4 -15 9 -4 17 14 19 20 6 20 -5 0 -12 -7 -15 -16z"/>
<path d="M4016 844 c-5 -14 -4 -15 9 -4 17 14 19 20 6 20 -5 0 -12 -7 -15 -16z"/>
<path d="M296 804 c-23 -22 -21 -96 2 -117 10 -10 28 -17 40 -17 21 0 52 24
52 41 0 15 -11 10 -30 -13 -15 -19 -22 -21 -37 -12 -27 17 -39 58 -25 89 17
37 39 41 68 15 13 -13 24 -19 24 -12 0 19 -30 42 -55 42 -13 0 -31 -7 -39 -16z"/>
<path d="M505 811 c-16 -28 -54 -141 -46 -141 5 0 13 9 16 20 5 15 15 20 40
20 25 0 35 -5 40 -20 3 -11 10 -20 16 -20 5 0 -1 24 -12 53 -12 28 -25 62 -30
75 -9 24 -15 27 -24 13z m35 -78 c0 -7 -11 -13 -25 -13 -28 0 -30 6 -14 47
l11 28 13 -25 c8 -14 14 -31 15 -37z"/>
<path d="M650 745 l0 -75 48 2 c43 1 44 2 10 5 l-38 4 0 70 c0 39 -4 69 -10
69 -6 0 -10 -32 -10 -75z"/>
<path d="M828 808 c-40 -32 -26 -123 20 -135 30 -7 56 7 60 33 3 16 1 16 -13
-3 -30 -42 -75 -17 -75 42 0 58 45 84 74 43 11 -16 16 -18 16 -7 0 35 -50 52
-82 27z"/>
<path d="M990 761 c0 -65 15 -91 54 -91 38 0 56 30 56 93 0 31 -4 57 -10 57
-6 0 -10 -26 -10 -59 0 -66 -18 -93 -48 -74 -12 7 -18 27 -20 72 -4 78 -22 80
-22 2z"/>
<path d="M1182 748 l-2 -78 43 1 42 2 -35 6 -35 6 -6 70 -5 70 -2 -77z"/>
<path d="M1349 803 c-22 -25 -18 -102 5 -119 63 -46 128 46 80 114 -18 26 -65
30 -85 5z m69 -5 c7 -7 12 -31 12 -55 0 -32 -5 -45 -19 -53 -25 -13 -27 -13
-45 6 -19 18 -21 85 -4 102 7 7 19 12 28 12 9 0 21 -5 28 -12z"/>
<path d="M1630 745 l0 -75 28 0 c48 0 72 25 72 75 0 50 -24 75 -72 75 l-28 0
0 -75z m68 49 c28 -19 29 -67 2 -94 -38 -38 -50 -27 -50 45 0 70 7 78 48 49z"/>
<path d="M1810 745 l0 -75 53 1 c51 2 51 2 12 8 -34 5 -40 10 -43 34 -3 25 -1
27 35 28 l38 2 -35 6 c-29 5 -36 11 -38 33 -3 25 0 27 40 31 42 3 42 4 -9 5
l-53 2 0 -75z"/>
<path d="M2080 745 l0 -75 28 0 c48 0 72 25 72 75 0 50 -24 75 -72 75 l-28 0
0 -75z m68 49 c28 -19 29 -67 2 -94 -38 -38 -50 -27 -50 45 0 70 7 78 48 49z"/>
<path d="M2276 798 c-48 -68 17 -160 80 -114 14 11 19 26 19 61 0 35 -5 50
-19 61 -29 21 -63 17 -80 -8z m68 -4 c21 -20 21 -78 0 -98 -18 -19 -20 -19
-45 -6 -14 8 -19 21 -19 53 0 62 30 86 64 51z"/>
<path d="M2460 799 c-9 -16 -8 -25 6 -40 9 -10 22 -19 29 -19 6 0 20 -6 30
-14 16 -12 17 -16 6 -30 -17 -20 -35 -20 -56 0 -9 9 -19 13 -23 9 -10 -10 28
-35 52 -35 60 1 62 55 3 83 -26 12 -37 23 -35 35 5 24 36 27 59 6 20 -18 27
-6 7 14 -20 20 -66 15 -78 -9z"/>
<path d="M2633 745 c0 -44 2 -61 4 -37 2 23 2 59 0 80 -2 20 -4 1 -4 -43z"/>
<path d="M2742 808 c-24 -24 -13 -49 28 -65 26 -10 40 -22 40 -34 0 -25 -37
-35 -59 -15 -25 23 -37 20 -16 -4 21 -23 67 -26 85 -5 18 22 2 53 -35 65 -37
12 -50 31 -32 49 15 15 33 14 52 -5 9 -9 18 -14 21 -11 3 2 -2 12 -11 21 -19
19 -56 21 -73 4z"/>
<path d="M3023 763 c-12 -32 -25 -66 -29 -75 -3 -10 -2 -18 4 -18 5 0 12 9 15
20 8 30 72 28 80 -2 4 -12 9 -19 13 -15 8 8 -44 147 -54 147 -4 0 -17 -26 -29
-57z m50 -35 c-2 -5 -13 -8 -24 -8 -22 0 -25 21 -7 53 11 22 12 22 24 -8 7
-16 10 -33 7 -37z"/>
<path d="M3180 767 c0 -61 20 -97 55 -97 40 0 55 25 55 91 0 33 -4 59 -10 59
-6 0 -10 -28 -10 -64 0 -56 -3 -65 -20 -71 -35 -11 -50 12 -50 76 0 33 -4 59
-10 59 -5 0 -10 -24 -10 -53z"/>
<path d="M3380 811 c23 -6 25 -13 31 -76 l5 -70 2 72 c2 70 3 72 30 76 15 2 0
4 -33 5 -39 0 -51 -2 -35 -7z"/>
<path d="M3557 802 c-23 -26 -22 -94 1 -115 24 -22 55 -21 75 1 22 24 22 95 1
116 -21 21 -57 20 -77 -2z m67 -8 c32 -31 10 -114 -30 -114 -17 0 -44 39 -44
65 0 26 27 65 45 65 7 0 21 -7 29 -16z"/>
<path d="M3730 745 c0 -43 4 -75 10 -75 6 0 10 26 11 58 l1 57 25 -57 c23 -52
43 -74 43 -49 0 5 10 31 22 58 l22 48 6 -60 7 -60 1 78 c2 93 -11 99 -43 19
-11 -28 -23 -54 -26 -57 -4 -3 -16 21 -29 55 -32 85 -50 80 -50 -15z"/>
<path d="M3999 793 c-6 -16 -19 -49 -29 -75 -10 -27 -14 -48 -10 -48 5 0 12 9
15 20 5 15 15 20 42 20 26 0 36 -5 40 -20 3 -11 10 -20 15 -20 5 0 8 4 6 8 -1
4 -14 38 -27 75 -14 37 -28 67 -33 67 -5 0 -13 -12 -19 -27z m36 -45 c6 -25 5
-28 -19 -28 -30 0 -29 -2 -15 39 12 35 24 31 34 -11z"/>
<path d="M4163 813 c26 -4 27 -6 29 -76 l2 -72 5 70 c6 63 8 70 31 76 16 5 4
7 -35 7 -33 -1 -48 -3 -32 -5z"/>
<path d="M4333 745 c0 -44 2 -61 4 -37 2 23 2 59 0 80 -2 20 -4 1 -4 -43z"/>
<path d="M4436 798 c-22 -31 -20 -84 4 -108 33 -33 90 -21 90 18 0 9 -7 6 -19
-9 -16 -21 -22 -22 -45 -11 -22 10 -26 18 -26 55 0 66 42 91 74 45 11 -16 16
-18 16 -7 0 42 -68 54 -94 17z"/>
<path d="M4627 802 c-23 -26 -22 -94 1 -115 24 -22 55 -21 75 1 22 24 22 95 1
116 -21 21 -57 20 -77 -2z m67 -8 c32 -31 10 -114 -30 -114 -17 0 -44 39 -44
65 0 26 27 65 45 65 7 0 21 -7 29 -16z"/>
</g>
</svg>
